<svg width="14" height="14" viewBox="0 0 14 14" fill="none" xmlns="http://www.w3.org/2000/svg">
<rect width="14" height="14" rx="4" fill="white"/>
<path d="M12.7021 3.12988L8.70801 6.67969H9.0791C9.53483 6.67969 9.7627 6.87988 9.7627 7.28027C9.7627 7.41374 9.73177 7.56673 9.66992 7.73926L9.15234 9.21875H11.1787C11.029 9.73958 10.5553 10 9.75781 10H8.04883C7.58008 10 7.3457 9.82585 7.3457 9.47754C7.3457 9.39616 7.36035 9.3099 7.38965 9.21875L8.03906 7.27051L5.49023 9.54102C5.14518 9.84701 4.74805 10 4.29883 10H3.47852L5.4707 4.36035H2.74121L3.48828 3.12988H6.53027C7.08691 3.12988 7.36523 3.33984 7.36523 3.75977C7.36523 3.90299 7.33268 4.06901 7.26758 4.25781L6.08105 7.77832L11.1787 3.12988H12.7021Z" fill="#17171C"/>
</svg>
